<svg width="50" height="50" viewBox="0 0 50 50" fill="none" xmlns="http://www.w3.org/2000/svg">
<path fill-rule="evenodd" clip-rule="evenodd" d="M0 25C0 11.1929 11.1929 0 25 0C38.8071 0 50 11.1929 50 25C50 38.8071 38.8071 50 25 50C11.1929 50 0 38.8071 0 25ZM34.5312 17.9688C35.625 17.8125 36.5625 17.6562 37.5 17.1875C36.875 18.2812 35.9375 19.2188 34.8438 19.8438C35.1562 27.1875 29.8438 35.1562 20.3125 35.1562C17.5 35.1562 14.8438 34.2188 12.5 32.8125C15.1562 33.125 17.9688 32.3438 19.8438 30.9375C17.5 30.9375 15.625 29.375 15 27.3438C15.7813 27.5 16.5625 27.3438 17.3438 27.1875C15 26.5625 13.2812 24.375 13.2812 22.0312C14.0625 22.3438 14.8438 22.6562 15.625 22.6562C13.4375 21.0938 12.6563 18.125 14.0625 15.7813C16.7188 18.9062 20.4688 20.9375 24.6875 21.0938C23.9062 17.9688 26.4062 14.8438 29.6875 14.8438C31.0938 14.8438 32.5 15.4687 33.4375 16.4062C34.6875 16.0938 35.7812 15.7812 36.7188 15.1562C36.4062 16.4062 35.625 17.3438 34.5312 17.9688Z" fill="white"/>
</svg>
