<svg width="45" height="45" viewBox="0 0 45 45" fill="none" xmlns="http://www.w3.org/2000/svg">
<path fill-rule="evenodd" clip-rule="evenodd" d="M0 22.5C0 10.0736 10.0736 0 22.5 0C34.9264 0 45 10.0736 45 22.5C45 34.9264 34.9264 45 22.5 45C10.0736 45 0 34.9264 0 22.5ZM31.0781 16.1719C32.0625 16.0312 32.9062 15.8906 33.75 15.4688C33.1875 16.4531 32.3438 17.2969 31.3594 17.8594C31.6406 24.4688 26.8594 31.6406 18.2812 31.6406C15.75 31.6406 13.3594 30.7969 11.25 29.5312C13.6406 29.8125 16.1719 29.1094 17.8594 27.8437C15.75 27.8437 14.0625 26.4375 13.5 24.6094C14.2031 24.75 14.9063 24.6094 15.6094 24.4688C13.5 23.9062 11.9531 21.9375 11.9531 19.8281C12.6562 20.1094 13.3594 20.3906 14.0625 20.3906C12.0938 18.9844 11.3906 16.3125 12.6562 14.2031C15.0469 17.0156 18.4219 18.8438 22.2188 18.9844C21.5156 16.1719 23.7656 13.3594 26.7188 13.3594C27.9844 13.3594 29.25 13.9219 30.0938 14.7656C31.2187 14.4844 32.2031 14.2031 33.0469 13.6406C32.7656 14.7656 32.0625 15.6094 31.0781 16.1719Z" fill="white"/>
</svg>
