<svg width="45" height="45" viewBox="0 0 45 45" fill="none" xmlns="http://www.w3.org/2000/svg">
<path fill-rule="evenodd" clip-rule="evenodd" d="M0 22.5C0 10.0736 10.0736 0 22.5 0C34.9264 0 45 10.0736 45 22.5C45 34.9264 34.9264 45 22.5 45C10.0736 45 0 34.9264 0 22.5ZM11.5312 18.7031V33.75H16.3125V18.7031H11.5312ZM11.25 13.9219C11.25 15.4688 12.375 16.5938 13.9219 16.5938C15.4688 16.5938 16.5938 15.4688 16.5938 13.9219C16.5938 12.375 15.4688 11.25 13.9219 11.25C12.5156 11.25 11.25 12.375 11.25 13.9219ZM28.9688 33.75H33.4688V24.4688C33.4688 19.8281 30.6562 18.2812 27.9844 18.2812C25.5937 18.2812 23.9062 19.8281 23.4844 20.8125V18.7031H18.9844V33.75H23.7656V25.7344C23.7656 23.625 25.1719 22.5 26.5781 22.5C27.9844 22.5 28.9688 23.2031 28.9688 25.5937V33.75Z" fill="white"/>
</svg>
