<svg width="240" height="82" viewBox="0 0 240 82" fill="none" xmlns="http://www.w3.org/2000/svg">
<path d="M75 82C96.5391 82 114 64.5391 114 43C114 21.4609 96.5391 4 75 4C53.4609 4 36 21.4609 36 43C36 64.5391 53.4609 82 75 82Z" fill="#588CC9"/>
<path d="M5.99998 58.24C5.31998 58.24 4.71998 58 4.19998 57.52C3.71998 57 3.47998 56.38 3.47998 55.66C3.47998 54.94 3.71998 54.34 4.19998 53.86C4.71998 53.38 5.31998 53.14 5.99998 53.14C6.67998 53.14 7.25998 53.38 7.73998 53.86C8.25998 54.34 8.51998 54.94 8.51998 55.66C8.51998 56.38 8.25998 57 7.73998 57.52C7.25998 58 6.67998 58.24 5.99998 58.24ZM21.2517 33.52C22.2117 31.24 23.7117 29.5 25.7517 28.3C27.7917 27.06 30.2717 26.44 33.1917 26.44V29.38L32.4717 29.32C28.9917 29.32 26.2717 30.42 24.3117 32.62C22.3517 34.78 21.3717 37.8 21.3717 41.68V58H18.3717V26.68H21.2517V33.52ZM134.756 26.44C137.676 26.44 140.316 27.12 142.676 28.48C145.036 29.8 146.876 31.68 148.196 34.12C149.556 36.52 150.236 39.26 150.236 42.34C150.236 45.42 149.556 48.16 148.196 50.56C146.876 52.96 145.036 54.84 142.676 56.2C140.316 57.56 137.676 58.24 134.756 58.24C131.956 58.24 129.416 57.58 127.136 56.26C124.896 54.9 123.156 53.02 121.916 50.62V58H119.036V13.48H122.036V33.82C123.276 31.5 125.016 29.7 127.256 28.42C129.496 27.1 131.996 26.44 134.756 26.44ZM134.576 55.54C136.976 55.54 139.136 54.98 141.056 53.86C142.976 52.74 144.476 51.18 145.556 49.18C146.676 47.18 147.236 44.9 147.236 42.34C147.236 39.78 146.676 37.5 145.556 35.5C144.476 33.5 142.976 31.94 141.056 30.82C139.136 29.7 136.976 29.14 134.576 29.14C132.176 29.14 130.016 29.7 128.096 30.82C126.216 31.94 124.716 33.5 123.596 35.5C122.516 37.5 121.976 39.78 121.976 42.34C121.976 44.9 122.516 47.18 123.596 49.18C124.716 51.18 126.216 52.74 128.096 53.86C130.016 54.98 132.176 55.54 134.576 55.54ZM159.524 13.48H162.524V58H159.524V13.48ZM187.409 58.24C184.449 58.24 181.769 57.56 179.369 56.2C177.009 54.84 175.149 52.96 173.789 50.56C172.429 48.12 171.749 45.38 171.749 42.34C171.749 39.3 172.429 36.58 173.789 34.18C175.149 31.74 177.009 29.84 179.369 28.48C181.769 27.12 184.449 26.44 187.409 26.44C190.369 26.44 193.029 27.12 195.389 28.48C197.789 29.84 199.669 31.74 201.029 34.18C202.389 36.58 203.069 39.3 203.069 42.34C203.069 45.38 202.389 48.12 201.029 50.56C199.669 52.96 197.789 54.84 195.389 56.2C193.029 57.56 190.369 58.24 187.409 58.24ZM187.409 55.54C189.809 55.54 191.949 54.98 193.829 53.86C195.749 52.74 197.249 51.18 198.329 49.18C199.449 47.18 200.009 44.9 200.009 42.34C200.009 39.78 199.449 37.5 198.329 35.5C197.249 33.5 195.749 31.94 193.829 30.82C191.949 29.7 189.809 29.14 187.409 29.14C185.009 29.14 182.849 29.7 180.929 30.82C179.049 31.94 177.549 33.5 176.429 35.5C175.349 37.5 174.809 39.78 174.809 42.34C174.809 44.9 175.349 47.18 176.429 49.18C177.549 51.18 179.049 52.74 180.929 53.86C182.849 54.98 185.009 55.54 187.409 55.54ZM224.796 58.24C221.756 58.24 219.036 57.56 216.636 56.2C214.236 54.84 212.356 52.96 210.996 50.56C209.636 48.12 208.956 45.38 208.956 42.34C208.956 39.26 209.636 36.52 210.996 34.12C212.356 31.68 214.236 29.8 216.636 28.48C219.036 27.12 221.756 26.44 224.796 26.44C227.316 26.44 229.596 26.94 231.636 27.94C233.716 28.9 235.396 30.32 236.676 32.2L234.456 33.82C233.336 32.26 231.936 31.1 230.256 30.34C228.616 29.54 226.796 29.14 224.796 29.14C222.356 29.14 220.156 29.7 218.196 30.82C216.276 31.9 214.756 33.44 213.636 35.44C212.556 37.44 212.016 39.74 212.016 42.34C212.016 44.94 212.556 47.24 213.636 49.24C214.756 51.24 216.276 52.8 218.196 53.92C220.156 55 222.356 55.54 224.796 55.54C226.796 55.54 228.616 55.16 230.256 54.4C231.936 53.6 233.336 52.42 234.456 50.86L236.676 52.48C235.396 54.36 233.716 55.8 231.636 56.8C229.596 57.76 227.316 58.24 224.796 58.24Z" fill="black"/>
<path d="M74.5595 48.6801V75.6201C76.9995 75.5401 79.1795 74.9201 81.0995 73.7601C82.9795 72.6001 84.4395 71.0401 85.4795 69.0801C86.5195 67.0801 87.0395 64.8401 87.0395 62.3601C87.0395 60.3201 86.6795 58.4401 85.9595 56.7201C85.1995 54.9601 84.0995 53.5001 82.6595 52.3401L84.6395 50.6001C86.2795 51.9601 87.5395 53.6801 88.4195 55.7601C89.2995 57.8001 89.7395 60.0201 89.7395 62.4201C89.7395 65.5401 89.0595 68.3201 87.6995 70.7601C86.3395 73.2001 84.4595 75.1201 82.0595 76.5201C79.6595 77.8801 76.9195 78.5601 73.8395 78.5601C70.7995 78.5601 68.0795 77.9201 65.6795 76.6401C63.2395 75.3201 61.3395 73.5201 59.9795 71.2401C58.6195 68.9601 57.9395 66.4001 57.9395 63.5601C57.9395 60.7201 58.6195 58.1801 59.9795 55.9401C61.2995 53.6601 63.1595 51.8801 65.5595 50.6001C67.9595 49.2801 70.6795 48.6201 73.7195 48.6201L74.5595 48.6801ZM60.5795 63.5601C60.5795 65.7601 61.0795 67.7401 62.0795 69.5001C63.0395 71.2601 64.4195 72.6801 66.2195 73.7601C67.9795 74.8001 69.9795 75.4001 72.2195 75.5601V51.5601C69.9795 51.6801 67.9795 52.2801 66.2195 53.3601C64.4595 54.4401 63.0795 55.8601 62.0795 57.6201C61.0795 59.3801 60.5795 61.3601 60.5795 63.5601Z" fill="#FAFAFA"/>
<path d="M57.9395 24.0393C57.9395 20.1193 59.0795 17.0193 61.3595 14.7393C63.6394 12.4593 66.9195 11.3193 71.1995 11.3193H89.4995V14.3193H71.4395C67.9194 14.3193 65.2394 15.2193 63.3994 17.0193C61.5594 18.7793 60.6394 21.2593 60.6394 24.4593C60.6394 28.1393 61.7395 31.0393 63.9395 33.1593C66.1395 35.2793 69.0995 36.3393 72.8195 36.3393H89.4995V39.3393H58.1795V36.4593H64.9595C62.7595 35.3793 61.0395 33.7793 59.7994 31.6593C58.5595 29.4993 57.9395 26.9593 57.9395 24.0393Z" fill="#FAFAFA"/>
</svg>
