<svg width="45" height="45" viewBox="0 0 45 45" fill="none" xmlns="http://www.w3.org/2000/svg">
<path fill-rule="evenodd" clip-rule="evenodd" d="M0 22.5C0 10.0736 10.0736 0 22.5 0C34.9264 0 45 10.0736 45 22.5C45 34.9264 34.9264 45 22.5 45C10.0736 45 0 34.9264 0 22.5ZM22.5 11.25C28.6875 11.25 33.75 16.3125 33.75 22.5C33.75 28.125 29.6719 32.9062 24.0469 33.75V25.7344H26.7188L27.2812 22.5H24.1875V20.3906C24.1875 19.5469 24.6094 18.7031 26.0156 18.7031H27.4219V15.8906C27.4219 15.8906 26.1562 15.6094 24.8906 15.6094C22.3594 15.6094 20.6719 17.1562 20.6719 19.9688V22.5H17.8594V25.7344H20.6719V33.6094C15.3281 32.7656 11.25 28.125 11.25 22.5C11.25 16.3125 16.3125 11.25 22.5 11.25Z" fill="white"/>
</svg>
