<svg width="50" height="50" viewBox="0 0 50 50" fill="none" xmlns="http://www.w3.org/2000/svg">
<path fill-rule="evenodd" clip-rule="evenodd" d="M0 25C0 11.1929 11.1929 0 25 0C38.8071 0 50 11.1929 50 25C50 38.8071 38.8071 50 25 50C11.1929 50 0 38.8071 0 25ZM25 12.5C31.875 12.5 37.5 18.125 37.5 25C37.5 31.25 32.9688 36.5625 26.7188 37.5V28.5937H29.6875L30.3125 25H26.875V22.6562C26.875 21.7188 27.3438 20.7812 28.9062 20.7812H30.4688V17.6562C30.4688 17.6562 29.0625 17.3438 27.6563 17.3438C24.8438 17.3438 22.9688 19.0625 22.9688 22.1875V25H19.8438V28.5937H22.9688V37.3438C17.0312 36.4062 12.5 31.25 12.5 25C12.5 18.125 18.125 12.5 25 12.5Z" fill="white"/>
</svg>
