<svg width="45" height="45" viewBox="0 0 45 45" fill="none" xmlns="http://www.w3.org/2000/svg">
<path d="M22.5 26.4375C20.3906 26.4375 18.5625 24.75 18.5625 22.5C18.5625 20.3906 20.25 18.5625 22.5 18.5625C24.6094 18.5625 26.4375 20.25 26.4375 22.5C26.4375 24.6094 24.6094 26.4375 22.5 26.4375Z" fill="white"/>
<path fill-rule="evenodd" clip-rule="evenodd" d="M27.2812 12.9375H17.7188C16.5938 13.0781 16.0312 13.2187 15.6094 13.3594C15.0469 13.5 14.625 13.7812 14.2031 14.2031C13.8693 14.5369 13.7116 14.8708 13.5209 15.2743C13.4707 15.3806 13.418 15.4921 13.3594 15.6094C13.3376 15.6746 13.3125 15.7433 13.2856 15.8168C13.1385 16.2187 12.9375 16.7678 12.9375 17.7187V27.2812C13.0781 28.4062 13.2187 28.9687 13.3594 29.3906C13.5 29.9531 13.7812 30.375 14.2031 30.7969C14.537 31.1307 14.8708 31.2884 15.2743 31.4791C15.3807 31.5293 15.492 31.5819 15.6094 31.6406C15.6746 31.6624 15.7433 31.6875 15.8168 31.7144C16.2187 31.8615 16.7678 32.0625 17.7188 32.0625H27.2812C28.4062 31.9219 28.9688 31.7812 29.3906 31.6406C29.9531 31.5 30.375 31.2187 30.7969 30.7969C31.1307 30.463 31.2884 30.1292 31.4791 29.7257C31.5293 29.6193 31.5819 29.508 31.6406 29.3906C31.6624 29.3254 31.6875 29.2567 31.7144 29.1832C31.8615 28.7812 32.0625 28.2322 32.0625 27.2812V17.7187C31.9219 16.5937 31.7812 16.0312 31.6406 15.6094C31.5 15.0469 31.2187 14.625 30.7969 14.2031C30.463 13.8693 30.1292 13.7116 29.7257 13.5209C29.6195 13.4707 29.5078 13.418 29.3906 13.3594C29.3254 13.3376 29.2567 13.3125 29.1832 13.2856C28.7813 13.1385 28.2322 12.9375 27.2812 12.9375ZM22.5 16.4531C19.125 16.4531 16.4531 19.125 16.4531 22.5C16.4531 25.875 19.125 28.5469 22.5 28.5469C25.875 28.5469 28.5469 25.875 28.5469 22.5C28.5469 19.125 25.875 16.4531 22.5 16.4531ZM30.0938 16.3125C30.0938 17.0891 29.4641 17.7187 28.6875 17.7187C27.9109 17.7187 27.2812 17.0891 27.2812 16.3125C27.2812 15.5358 27.9109 14.9062 28.6875 14.9062C29.4641 14.9062 30.0938 15.5358 30.0938 16.3125Z" fill="white"/>
<path fill-rule="evenodd" clip-rule="evenodd" d="M0 22.5C0 10.0736 10.0736 0 22.5 0C34.9264 0 45 10.0736 45 22.5C45 34.9264 34.9264 45 22.5 45C10.0736 45 0 34.9264 0 22.5ZM17.7188 10.8281H27.2812C28.5469 10.9687 29.3906 11.1094 30.0938 11.3906C30.9375 11.8125 31.5 12.0937 32.2031 12.7969C32.9062 13.5 33.3281 14.2031 33.6094 14.9062C33.8906 15.6094 34.1719 16.4531 34.1719 17.7187V27.2812C34.0312 28.5469 33.8906 29.3906 33.6094 30.0937C33.1875 30.9375 32.9062 31.5 32.2031 32.2031C31.5 32.9062 30.7969 33.3281 30.0938 33.6094C29.3906 33.8906 28.5469 34.1719 27.2812 34.1719H17.7188C16.4531 34.0312 15.6094 33.8906 14.9063 33.6094C14.0625 33.1875 13.5 32.9062 12.7969 32.2031C12.0938 31.5 11.6719 30.7969 11.3906 30.0937C11.1094 29.3906 10.8281 28.5469 10.8281 27.2812V17.7187C10.9688 16.4531 11.1094 15.6094 11.3906 14.9062C11.8125 14.0625 12.0938 13.5 12.7969 12.7969C13.5 12.0937 14.2031 11.6719 14.9063 11.3906C15.6094 11.1094 16.4531 10.8281 17.7188 10.8281Z" fill="white"/>
</svg>
